<svg width="480" height="480" viewBox="0 0 480 480" fill="none" xmlns="http://www.w3.org/2000/svg">
<g clip-path="url(#clip0_597_550)">
<path fill-rule="evenodd" clip-rule="evenodd" d="M240 331.982C322.843 331.982 390 263.486 390 178.991C390 94.4964 322.843 26 240 26C157.157 26 90 94.4964 90 178.991C90 263.486 157.157 331.982 240 331.982ZM266.753 233.157C250.143 233.157 238.454 222.647 238.454 197.706L238.454 127.218H256.602L256.602 197.706C256.602 208.843 261.677 213.706 269.675 213.706C278.134 213.706 281.979 208.216 281.979 197.549L281.979 128.003H298.435V198.02C298.435 208.687 302.587 214.177 311.046 214.177C319.197 214.177 324.119 209 324.119 198.177L324.119 127.062H342.267V198.177C342.267 223.275 330.117 233.471 313.968 233.471C302.126 233.471 294.129 227.981 290.13 218.255C286.131 228.137 278.134 233.157 266.753 233.157ZM221.42 204.239C221.42 221.18 211.115 233.102 186.661 233.102H134.678L134.678 214.592H186.661C197.581 214.592 202.349 209.415 202.349 201.258C202.349 192.631 196.966 188.709 186.508 188.709L135.447 188.709L135.447 171.925H186.969C197.427 171.925 202.81 167.689 202.81 159.062C202.81 150.748 197.735 145.728 187.123 145.728L134.524 145.728V127.219H187.123C211.73 127.219 221.727 139.611 221.727 156.081C221.727 168.16 216.344 176.317 206.809 180.395C216.498 184.474 221.42 192.631 221.42 204.239Z" fill="#F4FDF3"/>
<path d="M95.6819 459.049C95.6819 469.749 100.796 474.258 108.064 474.258C113.044 474.258 116.544 472.104 118.294 467.865C120.043 472.037 123.543 474.393 128.725 474.393C135.791 474.393 141.107 470.018 141.107 459.251L141.107 427.91L133.166 427.91L133.166 459.251C133.166 463.894 131.013 466.115 127.446 466.115C123.745 466.115 121.928 463.76 121.928 459.184L121.927 428.314L114.727 428.314L114.727 458.982C114.727 463.558 113.044 465.913 109.343 465.913C105.844 465.913 103.623 463.827 103.623 459.049L103.623 427.977L95.6816 427.977L95.6819 459.049Z" fill="#F4FDF3"/>
<path d="M99.4522 367.767C96.8494 367.767 95.6165 368.999 95.6165 371.534V410.233C95.6165 412.767 96.8494 414 99.4522 414H120C130.891 414 135.48 408.657 135.48 401.26C135.48 395.918 133.014 392.493 128.631 390.712C132.946 389 135.275 385.78 135.275 380.438C135.275 372.904 130.685 367.767 119.795 367.767H99.4522ZM103.562 394H120.206C124.932 394 127.329 396.055 127.329 399.959C127.329 403.726 125.069 405.986 120.206 405.986H104.452C103.904 405.986 103.562 405.781 103.562 405.233V394ZM103.562 376.534C103.562 375.986 103.904 375.712 104.452 375.712H120.069C125 375.712 127.124 378.109 127.124 381.739C127.124 385.507 124.795 387.287 120 387.287H103.562V376.534ZM163.408 367.767C152.518 367.767 147.929 372.972 147.929 380.369C147.929 385.438 150.121 389 154.436 390.781C150.189 392.561 147.792 396.123 147.792 401.397C147.792 408.589 152.244 414 163.203 414H186.628V405.918H163.203C158.477 405.918 156.217 403.726 156.217 400.096C156.217 396.329 158.614 394.479 163.271 394.479H186.217V387.15H163.477C158.819 387.15 156.422 385.438 156.422 381.671C156.422 378.109 158.545 375.849 163.408 375.849H186.559V367.767H163.408ZM198.296 367.767V375.849H211.79V414H219.941V375.849H233.434V367.767H198.296ZM243.559 367.767V375.849H257.052V414H265.203V375.849H278.696V367.767H243.559ZM304.881 367.767C293.99 367.767 289.401 372.972 289.401 380.369C289.401 385.438 291.593 389 295.908 390.781C291.661 392.561 289.264 396.123 289.264 401.397C289.264 408.589 293.716 414 304.675 414H328.1V405.918H304.675C299.949 405.918 297.689 403.726 297.689 400.096C297.689 396.329 300.086 394.479 304.744 394.479H327.689V387.15H304.949C300.291 387.15 297.894 385.438 297.894 381.671C297.894 378.109 300.017 375.849 304.881 375.849H328.032V367.767H304.881ZM343.262 367.767V375.849H368.605C373.057 375.849 375.043 378.657 375.043 381.945C375.043 385.233 373.194 388.383 368.605 388.383H350.591C345.522 388.383 343.33 390.507 343.33 395.712V414H351.413V397.287C351.413 396.466 351.824 396.123 352.577 396.123H364.632L375.18 414H384.153L373.399 395.507C380.454 393.52 383.194 387.356 383.194 381.602C383.194 374.205 378.742 367.767 368.331 367.767H343.262Z" fill="#F4FDF3"/>
<path d="M172.35 427.869C158.926 427.869 151.46 435.54 151.46 451.088C151.46 466.568 158.857 474.102 172.35 474.102H178.652C192.145 474.102 199.543 466.568 199.543 451.088C199.543 435.54 192.077 427.869 178.652 427.869H172.35ZM178.652 435.951C187.556 435.951 191.392 440.472 191.392 451.02C191.392 461.636 187.556 466.02 178.652 466.02H172.35C163.378 466.02 159.542 461.636 159.542 451.088C159.542 440.472 163.446 435.951 172.35 435.951H178.652ZM208.269 427.869V435.951H233.612C238.064 435.951 240.05 438.759 240.05 442.047C240.05 445.335 238.201 448.485 233.612 448.485H215.598C210.529 448.485 208.338 450.609 208.338 455.814V474.102H216.42V457.39C216.42 456.568 216.831 456.225 217.584 456.225H229.639L240.187 474.102H249.16L238.406 455.609C245.461 453.622 248.201 447.458 248.201 441.704C248.201 434.307 243.749 427.869 233.338 427.869H208.269ZM255.134 427.869V458.143C255.134 467.39 259.929 474.102 272.189 474.102H290.614V466.02H272.668C265.408 466.02 263.216 462.527 263.216 458.074V427.869H255.134ZM301.372 427.869C298.769 427.869 297.537 429.102 297.537 431.636V470.335C297.537 472.869 298.769 474.102 301.372 474.102H317.674C331.236 474.102 338.496 466.568 338.496 451.02C338.496 435.403 331.167 427.869 317.674 427.869H301.372ZM305.619 436.773C305.619 436.156 305.893 435.951 306.509 435.951H317.674C326.647 435.951 330.414 440.403 330.414 450.951C330.414 461.568 326.647 466.02 317.674 466.02H306.509C305.893 466.02 305.619 465.814 305.619 465.198V436.773ZM359.613 427.869C349.339 427.869 345.229 433.485 345.229 441.156C345.229 447.595 348.106 454.513 360.435 454.513H371.188C376.873 454.513 378.449 457.253 378.449 460.266C378.449 463.622 376.462 466.02 372.079 466.02H346.051V474.102H371.805C382.353 474.102 386.531 468.349 386.531 460.54C386.531 453.896 383.586 446.91 370.983 446.91H360.161C354.75 446.91 353.312 444.239 353.312 441.43C353.312 438.211 355.161 435.951 359.339 435.951H383.038V427.869H359.613Z" fill="#F4FDF3"/>
</g>
<defs>
<clipPath id="clip0_597_550">
<rect width="480" height="480" fill="white"/>
</clipPath>
</defs>
</svg>
