<svg width="1080" height="340" viewBox="0 0 1080 340" fill="none" xmlns="http://www.w3.org/2000/svg">
<path d="M410.132 243.136C410.132 264.144 420.173 272.996 434.443 272.996C444.22 272.996 451.091 268.768 454.526 260.444C457.961 268.636 464.832 273.26 475.005 273.26C488.879 273.26 499.317 264.672 499.317 243.532L499.316 182L483.725 182L483.726 243.532C483.726 252.649 479.498 257.009 472.495 257.009C465.228 257.009 461.661 252.385 461.661 243.4L461.66 182.793L447.523 182.793L447.523 243.004C447.523 251.988 444.22 256.613 436.953 256.613C430.083 256.613 425.723 252.517 425.723 243.136L425.722 182.132L410.131 182.132L410.132 243.136Z" fill="black"/>
<path d="M417.532 64.2284C412.422 64.2284 410.002 66.649 410.002 71.6246V147.604C410.002 152.579 412.422 155 417.532 155H457.875C479.257 155 488.267 144.511 488.267 129.987C488.267 119.498 483.426 112.774 474.819 109.278C483.291 105.916 487.864 99.5957 487.864 89.1065C487.864 74.3141 478.854 64.2284 457.472 64.2284H417.532ZM425.601 115.733H458.279C467.558 115.733 472.264 119.767 472.264 127.432C472.264 134.829 467.827 139.266 458.279 139.266H427.349C426.273 139.266 425.601 138.863 425.601 137.787V115.733ZM425.601 81.4414C425.601 80.3656 426.273 79.8277 427.349 79.8277H458.01C467.692 79.8277 471.861 84.5343 471.861 91.6616C471.861 99.0578 467.289 102.554 457.875 102.554H425.601V81.4414ZM543.1 64.2284C521.718 64.2284 512.708 74.4486 512.708 88.972C512.708 98.9233 517.011 105.916 525.483 109.412C517.146 112.909 512.439 119.902 512.439 130.256C512.439 144.376 521.18 155 542.696 155H588.687V139.132H542.696C533.417 139.132 528.98 134.829 528.98 127.701C528.98 120.305 533.686 116.674 542.831 116.674H587.88V102.285H543.234C534.09 102.285 529.383 98.9233 529.383 91.5271C529.383 84.5343 533.552 80.0966 543.1 80.0966H588.553V64.2284H543.1ZM611.597 64.2284V80.0966H638.088V155H654.091V80.0966H680.583V64.2284H611.597ZM700.461 64.2284V80.0966H726.953V155H742.956V80.0966H769.448V64.2284H700.461ZM820.857 64.2284C799.475 64.2284 790.465 74.4486 790.465 88.972C790.465 98.9233 794.768 105.916 803.24 109.412C794.903 112.909 790.196 119.902 790.196 130.256C790.196 144.376 798.937 155 820.453 155H866.444V139.132H820.453C811.174 139.132 806.737 134.829 806.737 127.701C806.737 120.305 811.443 116.674 820.588 116.674H865.637V102.285H820.991C811.847 102.285 807.14 98.9233 807.14 91.5271C807.14 84.5343 811.309 80.0966 820.857 80.0966H866.31V64.2284H820.857ZM896.212 64.2284V80.0966H945.968C954.709 80.0966 958.609 85.6101 958.609 92.065C958.609 98.5199 954.978 104.706 945.968 104.706H910.601C900.65 104.706 896.346 108.875 896.346 119.095V155H912.215V122.188C912.215 120.574 913.021 119.902 914.501 119.902H938.169L958.878 155H976.494L955.382 118.691C969.233 114.792 974.612 102.689 974.612 91.3926C974.612 76.8692 965.871 64.2284 945.43 64.2284H896.212Z" fill="black"/>
<path d="M560.655 182.228C534.298 182.228 519.64 197.29 519.64 227.816C519.64 258.208 534.163 273 560.655 273H573.027C599.519 273 614.042 258.208 614.042 227.816C614.042 197.29 599.384 182.228 573.027 182.228H560.655ZM573.027 198.097C590.509 198.097 598.04 206.972 598.04 227.681C598.04 248.525 590.509 257.132 573.027 257.132H560.655C543.039 257.132 535.508 248.525 535.508 227.816C535.508 206.972 543.173 198.097 560.655 198.097H573.027ZM631.175 182.228V198.097H680.932C689.673 198.097 693.572 203.61 693.572 210.065C693.572 216.52 689.942 222.706 680.932 222.706H645.564C635.613 222.706 631.31 226.875 631.31 237.095V273H647.178V240.188C647.178 238.574 647.985 237.902 649.464 237.902H673.132L693.841 273H711.458L690.345 236.691C704.196 232.792 709.575 220.689 709.575 209.393C709.575 194.869 700.834 182.228 680.394 182.228H631.175ZM723.187 182.228V241.667C723.187 259.821 732.6 273 756.671 273H792.846V257.132H757.613C743.358 257.132 739.055 250.273 739.055 241.533V182.228H723.187ZM813.968 182.228C808.858 182.228 806.437 184.649 806.437 189.625V265.604C806.437 270.579 808.858 273 813.968 273H845.973C872.6 273 886.854 258.208 886.854 227.681C886.854 197.021 872.465 182.228 845.973 182.228H813.968ZM822.305 199.71C822.305 198.5 822.843 198.097 824.054 198.097H845.973C863.59 198.097 870.986 206.838 870.986 227.547C870.986 248.391 863.59 257.132 845.973 257.132H824.054C822.843 257.132 822.305 256.728 822.305 255.518V199.71ZM928.314 182.228C908.142 182.228 900.074 193.255 900.074 208.317C900.074 220.958 905.722 234.54 929.927 234.54H951.04C962.202 234.54 965.295 239.919 965.295 245.836C965.295 252.425 961.395 257.132 952.788 257.132H901.687V273H952.251C972.96 273 981.163 261.704 981.163 246.374C981.163 233.329 975.381 219.613 950.637 219.613H929.39C918.766 219.613 915.942 214.368 915.942 208.855C915.942 202.534 919.573 198.097 927.776 198.097H974.305V182.228H928.314Z" fill="black"/>
<path fill-rule="evenodd" clip-rule="evenodd" d="M223.639 304.201C296.342 304.201 355.279 244.089 355.279 169.937C355.279 95.785 296.342 35.6729 223.639 35.6729C150.937 35.6729 92 95.785 92 169.937C92 244.089 150.937 304.201 223.639 304.201ZM247.118 217.473C232.541 217.473 222.283 208.25 222.283 186.361L222.283 124.502H238.21V186.361C238.21 196.135 242.664 200.403 249.682 200.403C257.106 200.403 260.48 195.585 260.48 186.224L260.48 125.19H274.922V186.637C274.922 195.998 278.566 200.816 285.99 200.816C293.143 200.816 297.462 196.273 297.462 186.774L297.462 124.364H313.389V186.774C313.389 208.8 302.726 217.748 288.554 217.748C278.161 217.748 271.143 212.93 267.633 204.395C264.124 213.068 257.106 217.473 247.118 217.473ZM207.334 192.094C207.334 206.962 198.29 217.424 176.83 217.424L131.21 217.424L131.21 201.18H176.83C186.413 201.18 190.597 196.637 190.597 189.479C190.597 181.907 185.873 178.466 176.695 178.466L131.884 178.466L131.884 163.736H177.1C186.278 163.736 191.002 160.019 191.002 152.447C191.002 145.151 186.548 140.746 177.235 140.746H131.075V124.502L177.235 124.502C198.83 124.502 207.603 135.377 207.603 149.832C207.603 160.432 202.879 167.59 194.511 171.17C203.014 174.749 207.334 181.907 207.334 192.094Z" fill="black"/>
</svg>
