<svg width="480" height="480" viewBox="0 0 480 480" fill="none" xmlns="http://www.w3.org/2000/svg">
<path fill-rule="evenodd" clip-rule="evenodd" d="M240 331.982C322.843 331.982 390 263.486 390 178.991C390 94.4964 322.843 26 240 26C157.157 26 90 94.4964 90 178.991C90 263.486 157.157 331.982 240 331.982ZM266.753 233.157C250.143 233.157 238.454 222.648 238.454 197.706L238.454 127.219H256.602L256.602 197.706C256.602 208.844 261.678 213.706 269.675 213.706C278.134 213.706 281.979 208.216 281.979 197.549L281.979 128.003H298.435V198.02C298.435 208.687 302.588 214.177 311.047 214.177C319.198 214.177 324.119 209.001 324.119 198.177L324.119 127.062H342.267V198.177C342.267 223.275 330.117 233.471 313.969 233.471C302.126 233.471 294.129 227.981 290.13 218.255C286.132 228.138 278.134 233.157 266.753 233.157ZM221.42 204.239C221.42 221.18 211.116 233.102 186.662 233.102H134.678L134.678 214.592H186.662C197.581 214.592 202.349 209.415 202.349 201.259C202.349 192.631 196.966 188.709 186.508 188.709L135.447 188.709L135.447 171.925H186.969C197.428 171.925 202.811 167.69 202.811 159.062C202.811 150.748 197.735 145.729 187.123 145.729L134.525 145.729V127.219H187.123C211.731 127.219 221.728 139.611 221.728 156.082C221.728 168.16 216.345 176.317 206.809 180.396C216.498 184.474 221.42 192.631 221.42 204.239Z" fill="url(#paint0_linear_2_97)"/>
<path d="M95.6828 440.049C95.6828 450.749 100.797 455.258 108.065 455.258C113.045 455.258 116.545 453.104 118.294 448.864C120.044 453.037 123.544 455.392 128.725 455.392C135.792 455.392 141.108 451.018 141.108 440.251L141.108 408.91H133.167L133.167 440.251C133.167 444.894 131.013 447.115 127.447 447.115C123.745 447.115 121.928 444.759 121.928 440.183L121.928 409.314H114.727L114.728 439.981C114.728 444.558 113.045 446.913 109.344 446.913C105.845 446.913 103.624 444.827 103.624 440.049L103.623 408.977H95.6825L95.6828 440.049Z" fill="url(#paint1_linear_2_97)"/>
<path d="M99.4522 348.767C96.8494 348.767 95.6165 349.999 95.6165 352.534V391.233C95.6165 393.767 96.8494 395 99.4522 395H120C130.891 395 135.48 389.657 135.48 382.26C135.48 376.918 133.014 373.493 128.631 371.712C132.946 370 135.275 366.78 135.275 361.438C135.275 353.904 130.685 348.767 119.795 348.767H99.4522ZM103.562 375H120.206C124.932 375 127.329 377.055 127.329 380.959C127.329 384.726 125.069 386.986 120.206 386.986H104.452C103.904 386.986 103.562 386.781 103.562 386.233V375ZM103.562 357.534C103.562 356.986 103.904 356.712 104.452 356.712H120.069C125 356.712 127.124 359.109 127.124 362.739C127.124 366.507 124.795 368.287 120 368.287H103.562V357.534Z" fill="url(#paint2_linear_2_97)"/>
<path d="M163.408 348.767C152.518 348.767 147.929 353.972 147.929 361.369C147.929 366.438 150.121 370 154.436 371.781C150.189 373.561 147.792 377.123 147.792 382.397C147.792 389.589 152.244 395 163.203 395H186.628V386.918H163.203C158.477 386.918 156.217 384.726 156.217 381.096C156.217 377.329 158.614 375.479 163.271 375.479H186.217V368.15H163.477C158.819 368.15 156.422 366.438 156.422 362.671C156.422 359.109 158.545 356.849 163.408 356.849H186.559V348.767H163.408Z" fill="url(#paint3_linear_2_97)"/>
<path d="M198.296 348.767V356.849H211.79V395H219.941V356.849H233.434V348.767H198.296Z" fill="url(#paint4_linear_2_97)"/>
<path d="M243.559 348.767V356.849H257.052V395H265.203V356.849H278.696V348.767H243.559Z" fill="url(#paint5_linear_2_97)"/>
<path d="M304.881 348.767C293.99 348.767 289.401 353.972 289.401 361.369C289.401 366.438 291.593 370 295.908 371.781C291.661 373.561 289.264 377.123 289.264 382.397C289.264 389.589 293.716 395 304.675 395H328.1V386.918H304.675C299.949 386.918 297.689 384.726 297.689 381.096C297.689 377.329 300.086 375.479 304.744 375.479H327.689V368.15H304.949C300.291 368.15 297.894 366.438 297.894 362.671C297.894 359.109 300.017 356.849 304.881 356.849H328.032V348.767H304.881Z" fill="url(#paint6_linear_2_97)"/>
<path d="M343.262 348.767V356.849H368.605C373.057 356.849 375.043 359.657 375.043 362.945C375.043 366.233 373.194 369.383 368.605 369.383H350.591C345.522 369.383 343.33 371.507 343.33 376.712V395H351.413V378.287C351.413 377.466 351.824 377.123 352.577 377.123H364.632L375.18 395H384.153L373.399 376.507C380.454 374.52 383.194 368.356 383.194 362.602C383.194 355.205 378.742 348.767 368.331 348.767H343.262Z" fill="url(#paint7_linear_2_97)"/>
<path d="M172.35 408.868C158.925 408.868 151.459 416.54 151.459 432.088C151.459 447.568 158.857 455.102 172.35 455.102H178.651C192.145 455.102 199.542 447.568 199.542 432.088C199.542 416.54 192.076 408.868 178.651 408.868H172.35ZM178.651 416.951C187.556 416.951 191.391 421.471 191.391 432.019C191.391 442.636 187.556 447.02 178.651 447.02H172.35C163.377 447.02 159.542 442.636 159.542 432.088C159.542 421.471 163.446 416.951 172.35 416.951H178.651Z" fill="url(#paint8_linear_2_97)"/>
<path d="M208.269 408.868V416.951H233.611C238.064 416.951 240.05 419.759 240.05 423.047C240.05 426.334 238.201 429.485 233.611 429.485H215.598C210.529 429.485 208.337 431.608 208.337 436.814V455.102H216.419V438.389C216.419 437.567 216.83 437.225 217.584 437.225H229.639L240.187 455.102H249.16L238.406 436.608C245.461 434.622 248.201 428.458 248.201 422.704C248.201 415.307 243.749 408.868 233.337 408.868H208.269Z" fill="url(#paint9_linear_2_97)"/>
<path d="M255.134 408.868V439.143C255.134 448.389 259.928 455.102 272.189 455.102H290.613V447.02H272.668C265.408 447.02 263.216 443.526 263.216 439.074V408.868H255.134Z" fill="url(#paint10_linear_2_97)"/>
<path d="M301.372 408.868C298.769 408.868 297.536 410.101 297.536 412.636V451.335C297.536 453.869 298.769 455.102 301.372 455.102H317.673C331.235 455.102 338.495 447.568 338.495 432.019C338.495 416.403 331.167 408.868 317.673 408.868H301.372ZM305.618 417.773C305.618 417.156 305.892 416.951 306.509 416.951H317.673C326.646 416.951 330.413 421.403 330.413 431.951C330.413 442.567 326.646 447.02 317.673 447.02H306.509C305.892 447.02 305.618 446.814 305.618 446.198V417.773Z" fill="url(#paint11_linear_2_97)"/>
<path d="M359.613 408.868C349.338 408.868 345.229 414.485 345.229 422.156C345.229 428.595 348.106 435.513 360.434 435.513H371.188C376.873 435.513 378.448 438.252 378.448 441.266C378.448 444.622 376.462 447.02 372.078 447.02H346.051V455.102H371.804C382.353 455.102 386.531 449.348 386.531 441.54C386.531 434.896 383.585 427.91 370.983 427.91H360.16C354.749 427.91 353.311 425.238 353.311 422.43C353.311 419.211 355.16 416.951 359.339 416.951H383.037V408.868H359.613Z" fill="url(#paint12_linear_2_97)"/>
<defs>
<linearGradient id="paint0_linear_2_97" x1="240" y1="26" x2="240" y2="455.392" gradientUnits="userSpaceOnUse">
<stop stop-color="#04DDDB"/>
<stop offset="0.5" stop-color="#0FA5D2"/>
<stop offset="1" stop-color="#1865B7"/>
</linearGradient>
<linearGradient id="paint1_linear_2_97" x1="240" y1="26" x2="240" y2="455.392" gradientUnits="userSpaceOnUse">
<stop stop-color="#04DDDB"/>
<stop offset="0.5" stop-color="#0FA5D2"/>
<stop offset="1" stop-color="#1865B7"/>
</linearGradient>
<linearGradient id="paint2_linear_2_97" x1="240" y1="26" x2="240" y2="455.392" gradientUnits="userSpaceOnUse">
<stop stop-color="#04DDDB"/>
<stop offset="0.5" stop-color="#0FA5D2"/>
<stop offset="1" stop-color="#1865B7"/>
</linearGradient>
<linearGradient id="paint3_linear_2_97" x1="240" y1="26" x2="240" y2="455.392" gradientUnits="userSpaceOnUse">
<stop stop-color="#04DDDB"/>
<stop offset="0.5" stop-color="#0FA5D2"/>
<stop offset="1" stop-color="#1865B7"/>
</linearGradient>
<linearGradient id="paint4_linear_2_97" x1="240" y1="26" x2="240" y2="455.392" gradientUnits="userSpaceOnUse">
<stop stop-color="#04DDDB"/>
<stop offset="0.5" stop-color="#0FA5D2"/>
<stop offset="1" stop-color="#1865B7"/>
</linearGradient>
<linearGradient id="paint5_linear_2_97" x1="240" y1="26" x2="240" y2="455.392" gradientUnits="userSpaceOnUse">
<stop stop-color="#04DDDB"/>
<stop offset="0.5" stop-color="#0FA5D2"/>
<stop offset="1" stop-color="#1865B7"/>
</linearGradient>
<linearGradient id="paint6_linear_2_97" x1="240" y1="26" x2="240" y2="455.392" gradientUnits="userSpaceOnUse">
<stop stop-color="#04DDDB"/>
<stop offset="0.5" stop-color="#0FA5D2"/>
<stop offset="1" stop-color="#1865B7"/>
</linearGradient>
<linearGradient id="paint7_linear_2_97" x1="240" y1="26" x2="240" y2="455.392" gradientUnits="userSpaceOnUse">
<stop stop-color="#04DDDB"/>
<stop offset="0.5" stop-color="#0FA5D2"/>
<stop offset="1" stop-color="#1865B7"/>
</linearGradient>
<linearGradient id="paint8_linear_2_97" x1="240" y1="26" x2="240" y2="455.392" gradientUnits="userSpaceOnUse">
<stop stop-color="#04DDDB"/>
<stop offset="0.5" stop-color="#0FA5D2"/>
<stop offset="1" stop-color="#1865B7"/>
</linearGradient>
<linearGradient id="paint9_linear_2_97" x1="240" y1="26" x2="240" y2="455.392" gradientUnits="userSpaceOnUse">
<stop stop-color="#04DDDB"/>
<stop offset="0.5" stop-color="#0FA5D2"/>
<stop offset="1" stop-color="#1865B7"/>
</linearGradient>
<linearGradient id="paint10_linear_2_97" x1="240" y1="26" x2="240" y2="455.392" gradientUnits="userSpaceOnUse">
<stop stop-color="#04DDDB"/>
<stop offset="0.5" stop-color="#0FA5D2"/>
<stop offset="1" stop-color="#1865B7"/>
</linearGradient>
<linearGradient id="paint11_linear_2_97" x1="240" y1="26" x2="240" y2="455.392" gradientUnits="userSpaceOnUse">
<stop stop-color="#04DDDB"/>
<stop offset="0.5" stop-color="#0FA5D2"/>
<stop offset="1" stop-color="#1865B7"/>
</linearGradient>
<linearGradient id="paint12_linear_2_97" x1="240" y1="26" x2="240" y2="455.392" gradientUnits="userSpaceOnUse">
<stop stop-color="#04DDDB"/>
<stop offset="0.5" stop-color="#0FA5D2"/>
<stop offset="1" stop-color="#1865B7"/>
</linearGradient>
</defs>
</svg>
