<svg width="1080" height="340" viewBox="0 0 1080 340" fill="none" xmlns="http://www.w3.org/2000/svg">
<path fill-rule="evenodd" clip-rule="evenodd" d="M0 0H1080V340H0V0ZM410.132 243.136C410.132 264.144 420.173 272.996 434.443 272.996C444.22 272.996 451.091 268.768 454.526 260.444C457.961 268.636 464.832 273.26 475.005 273.26C488.879 273.26 499.317 264.672 499.317 243.532L499.316 182H483.725L483.726 243.532C483.726 252.649 479.498 257.009 472.495 257.009C465.228 257.009 461.661 252.385 461.661 243.4L461.66 182.793H447.523L447.523 243.004C447.523 251.988 444.22 256.612 436.953 256.612C430.083 256.612 425.723 252.517 425.723 243.136L425.722 182.132H410.131L410.132 243.136ZM410.002 71.6246C410.002 66.649 412.422 64.2284 417.532 64.2284H457.472C478.854 64.2284 487.864 74.3141 487.864 89.1065C487.864 99.5957 483.291 105.916 474.819 109.278C483.426 112.774 488.267 119.498 488.267 129.987C488.267 144.511 479.257 155 457.875 155H417.532C412.422 155 410.002 152.579 410.002 147.604V71.6246ZM458.279 115.733H425.601V137.787C425.601 138.863 426.273 139.266 427.349 139.266H458.279C467.827 139.266 472.264 134.829 472.264 127.432C472.264 119.767 467.558 115.733 458.279 115.733ZM427.349 79.8277C426.273 79.8277 425.601 80.3656 425.601 81.4414V102.554H457.875C467.289 102.554 471.861 99.0578 471.861 91.6616C471.861 84.5343 467.692 79.8277 458.01 79.8277H427.349ZM512.708 88.972C512.708 74.4486 521.718 64.2284 543.1 64.2284H588.553V80.0966H543.1C533.552 80.0966 529.383 84.5343 529.383 91.5271C529.383 98.9233 534.09 102.285 543.234 102.285H587.88V116.674H542.831C533.686 116.674 528.98 120.305 528.98 127.701C528.98 134.829 533.417 139.132 542.696 139.132H588.687V155H542.696C521.18 155 512.439 144.376 512.439 130.256C512.439 119.902 517.146 112.909 525.483 109.412C517.011 105.916 512.708 98.9233 512.708 88.972ZM611.597 80.0966V64.2284H680.583V80.0966H654.091V155H638.089V80.0966H611.597ZM700.461 80.0966V64.2284H769.448V80.0966H742.956V155H726.953V80.0966H700.461ZM790.465 88.972C790.465 74.4486 799.475 64.2284 820.857 64.2284H866.31V80.0966H820.857C811.309 80.0966 807.14 84.5343 807.14 91.5271C807.14 98.9233 811.847 102.285 820.991 102.285H865.637V116.674H820.588C811.443 116.674 806.737 120.305 806.737 127.701C806.737 134.829 811.174 139.132 820.453 139.132H866.444V155H820.453C798.937 155 790.196 144.376 790.196 130.256C790.196 119.902 794.903 112.909 803.24 109.412C794.768 105.916 790.465 98.9233 790.465 88.972ZM896.212 80.0966V64.2284H945.43C965.871 64.2284 974.612 76.8692 974.612 91.3926C974.612 102.689 969.233 114.792 955.382 118.691L976.494 155H958.878L938.169 119.902H914.501C913.021 119.902 912.215 120.574 912.215 122.188V155H896.346V119.095C896.346 108.875 900.65 104.706 910.601 104.706H945.968C954.978 104.706 958.609 98.5199 958.609 92.065C958.609 85.6101 954.709 80.0966 945.968 80.0966H896.212ZM560.655 182.228C534.298 182.228 519.64 197.29 519.64 227.816C519.64 258.208 534.163 273 560.655 273H573.027C599.519 273 614.042 258.208 614.042 227.816C614.042 197.29 599.384 182.228 573.027 182.228H560.655ZM573.027 198.097C590.509 198.097 598.04 206.972 598.04 227.681C598.04 248.525 590.509 257.132 573.027 257.132H560.655C543.039 257.132 535.508 248.525 535.508 227.816C535.508 206.972 543.173 198.097 560.655 198.097H573.027ZM631.175 182.228V198.097H680.932C689.673 198.097 693.572 203.61 693.572 210.065C693.572 216.52 689.942 222.706 680.932 222.706H645.564C635.613 222.706 631.31 226.875 631.31 237.095V273H647.178V240.188C647.178 238.574 647.985 237.902 649.464 237.902H673.132L693.841 273H711.458L690.345 236.691C704.196 232.792 709.575 220.689 709.575 209.393C709.575 194.869 700.834 182.228 680.394 182.228H631.175ZM723.187 182.228V241.667C723.187 259.821 732.6 273 756.671 273H792.846V257.132H757.613C743.358 257.132 739.055 250.273 739.055 241.533V182.228H723.187ZM813.968 182.228C808.858 182.228 806.437 184.649 806.437 189.625V265.604C806.437 270.579 808.858 273 813.968 273H845.973C872.6 273 886.854 258.208 886.854 227.681C886.854 197.021 872.465 182.228 845.973 182.228H813.968ZM822.305 199.71C822.305 198.5 822.843 198.097 824.054 198.097H845.973C863.59 198.097 870.986 206.838 870.986 227.547C870.986 248.391 863.59 257.132 845.973 257.132H824.054C822.843 257.132 822.305 256.728 822.305 255.518V199.71ZM900.074 208.317C900.074 220.958 905.722 234.54 929.927 234.54H951.04C962.202 234.54 965.295 239.919 965.295 245.836C965.295 252.425 961.395 257.132 952.788 257.132H901.687V273H952.251C972.96 273 981.163 261.704 981.163 246.374C981.163 233.329 975.38 219.613 950.637 219.613H929.39C918.766 219.613 915.942 214.368 915.942 208.855C915.942 202.534 919.573 198.097 927.776 198.097H974.305V182.228H928.314C908.142 182.228 900.074 193.255 900.074 208.317ZM355.279 169.937C355.279 244.089 296.342 304.201 223.639 304.201C150.937 304.201 92 244.089 92 169.937C92 95.785 150.937 35.6729 223.639 35.6729C296.342 35.6729 355.279 95.785 355.279 169.937ZM222.283 186.361C222.283 208.25 232.541 217.473 247.118 217.473C257.106 217.473 264.124 213.068 267.633 204.395C271.143 212.93 278.161 217.748 288.554 217.748C302.726 217.748 313.389 208.8 313.389 186.774V124.364H297.462V186.774C297.462 196.273 293.143 200.816 285.99 200.816C278.566 200.816 274.922 195.998 274.922 186.637V125.19H260.48V186.224C260.48 195.585 257.106 200.403 249.682 200.403C242.664 200.403 238.21 196.135 238.21 186.361V124.502H222.283L222.283 186.361ZM176.83 217.424C198.29 217.424 207.334 206.962 207.334 192.094C207.334 181.907 203.014 174.749 194.511 171.17C202.879 167.59 207.603 160.432 207.603 149.832C207.603 135.377 198.83 124.502 177.235 124.502L131.075 124.502V140.746H177.235C186.548 140.746 191.002 145.151 191.002 152.447C191.002 160.019 186.278 163.736 177.1 163.736H131.884V178.466L176.695 178.466C185.873 178.466 190.597 181.907 190.597 189.479C190.597 196.637 186.413 201.18 176.83 201.18H131.21V217.424L176.83 217.424Z" fill="white"/>
</svg>
