<svg width="480" height="720" viewBox="0 0 480 720" fill="none" xmlns="http://www.w3.org/2000/svg">
<path fill-rule="evenodd" clip-rule="evenodd" d="M0 0H480V720H0V0ZM240 441.982C322.843 441.982 390 373.486 390 288.991C390 204.496 322.843 136 240 136C157.157 136 90 204.496 90 288.991C90 373.486 157.157 441.982 240 441.982ZM266.753 343.157C250.143 343.157 238.454 332.648 238.454 307.706L238.454 237.219H256.602V307.706C256.602 318.844 261.678 323.706 269.675 323.706C278.134 323.706 281.979 318.216 281.979 307.549L281.979 238.003H298.435V308.02C298.435 318.687 302.588 324.177 311.047 324.177C319.198 324.177 324.119 319 324.119 308.177L324.119 237.062H342.267V308.177C342.267 333.275 330.117 343.471 313.969 343.471C302.126 343.471 294.129 337.981 290.13 328.255C286.132 338.138 278.134 343.157 266.753 343.157ZM221.42 314.239C221.42 331.18 211.116 343.102 186.662 343.102H134.678V324.592H186.662C197.581 324.592 202.349 319.415 202.349 311.258C202.349 302.631 196.966 298.709 186.508 298.709L135.447 298.709V281.925H186.969C197.428 281.925 202.811 277.69 202.811 269.062C202.811 260.748 197.735 255.729 187.123 255.729L134.525 255.729V237.219H187.123C211.731 237.219 221.728 249.611 221.728 266.082C221.728 278.16 216.345 286.317 206.809 290.396C216.498 294.474 221.42 302.631 221.42 314.239ZM108.065 584.258C100.797 584.258 95.6827 579.749 95.6827 569.049L95.6825 537.977H103.623L103.624 569.049C103.624 573.827 105.845 575.913 109.344 575.913C113.045 575.913 114.728 573.558 114.728 568.982L114.727 538.314H121.928L121.928 569.184C121.928 573.76 123.745 576.115 127.447 576.115C131.013 576.115 133.167 573.894 133.167 569.251L133.167 537.91H141.108L141.108 569.251C141.108 580.018 135.792 584.393 128.725 584.393C123.544 584.393 120.044 582.037 118.294 577.865C116.545 582.104 113.045 584.258 108.065 584.258ZM99.4522 477.767C96.8494 477.767 95.6165 478.999 95.6165 481.534V520.233C95.6165 522.767 96.8494 524 99.4522 524H120C130.891 524 135.48 518.657 135.48 511.26C135.48 505.918 133.014 502.493 128.631 500.712C132.946 499 135.275 495.78 135.275 490.438C135.275 482.904 130.685 477.767 119.795 477.767H99.4522ZM103.562 504H120.206C124.932 504 127.329 506.055 127.329 509.959C127.329 513.726 125.069 515.986 120.206 515.986H104.452C103.904 515.986 103.562 515.781 103.562 515.233V504ZM103.562 486.534C103.562 485.986 103.904 485.712 104.452 485.712H120.069C125 485.712 127.124 488.109 127.124 491.739C127.124 495.507 124.795 497.287 120 497.287H103.562V486.534ZM163.408 477.767C152.518 477.767 147.929 482.972 147.929 490.369C147.929 495.438 150.121 499 154.436 500.781C150.189 502.561 147.792 506.123 147.792 511.397C147.792 518.589 152.244 524 163.203 524H186.628V515.918H163.203C158.477 515.918 156.217 513.726 156.217 510.096C156.217 506.329 158.614 504.479 163.271 504.479H186.217V497.15H163.477C158.819 497.15 156.422 495.438 156.422 491.671C156.422 488.109 158.545 485.849 163.408 485.849H186.559V477.767H163.408ZM198.296 477.767V485.849H211.79V524H219.941V485.849H233.434V477.767H198.296ZM243.559 477.767V485.849H257.052V524H265.203V485.849H278.696V477.767H243.559ZM304.881 477.767C293.99 477.767 289.401 482.972 289.401 490.369C289.401 495.438 291.593 499 295.908 500.781C291.661 502.561 289.264 506.123 289.264 511.397C289.264 518.589 293.716 524 304.675 524H328.1V515.918H304.675C299.949 515.918 297.689 513.726 297.689 510.096C297.689 506.329 300.086 504.479 304.744 504.479H327.689V497.15H304.949C300.291 497.15 297.894 495.438 297.894 491.671C297.894 488.109 300.017 485.849 304.881 485.849H328.032V477.767H304.881ZM343.262 477.767V485.849H368.605C373.057 485.849 375.043 488.657 375.043 491.945C375.043 495.233 373.194 498.383 368.605 498.383H350.591C345.522 498.383 343.33 500.507 343.33 505.712V524H351.413V507.287C351.413 506.466 351.824 506.123 352.577 506.123H364.632L375.18 524H384.153L373.399 505.507C380.454 503.52 383.194 497.356 383.194 491.602C383.194 484.205 378.742 477.767 368.331 477.767H343.262ZM151.459 561.088C151.459 545.54 158.925 537.868 172.35 537.868H178.651C192.076 537.868 199.542 545.54 199.542 561.088C199.542 576.568 192.145 584.102 178.651 584.102H172.35C158.857 584.102 151.459 576.568 151.459 561.088ZM191.391 561.019C191.391 550.471 187.556 545.951 178.651 545.951H172.35C163.446 545.951 159.542 550.471 159.542 561.088C159.542 571.636 163.377 576.02 172.35 576.02H178.651C187.556 576.02 191.391 571.636 191.391 561.019ZM208.269 545.951V537.868H233.337C243.749 537.868 248.201 544.307 248.201 551.704C248.201 557.458 245.461 563.622 238.406 565.609L249.16 584.102H240.187L229.639 566.225H217.584C216.83 566.225 216.419 566.567 216.419 567.389V584.102H208.337V565.814C208.337 560.608 210.529 558.485 215.598 558.485H233.611C238.201 558.485 240.05 555.334 240.05 552.047C240.05 548.759 238.064 545.951 233.611 545.951H208.269ZM255.134 568.143V537.868H263.216V568.074C263.216 572.526 265.408 576.02 272.668 576.02H290.613V584.102H272.189C259.928 584.102 255.134 577.389 255.134 568.143ZM297.536 541.636C297.536 539.101 298.769 537.868 301.372 537.868H317.673C331.167 537.868 338.495 545.403 338.495 561.019C338.495 576.568 331.235 584.102 317.673 584.102H301.372C298.769 584.102 297.536 582.869 297.536 580.335V541.636ZM306.509 545.951C305.892 545.951 305.618 546.156 305.618 546.773V575.198C305.618 575.814 305.892 576.02 306.509 576.02H317.673C326.646 576.02 330.413 571.568 330.413 560.951C330.413 550.403 326.646 545.951 317.673 545.951H306.509ZM360.434 564.513C348.105 564.513 345.229 557.595 345.229 551.156C345.229 543.485 349.338 537.868 359.612 537.868H383.037V545.951H359.339C355.16 545.951 353.311 548.211 353.311 551.43C353.311 554.239 354.749 556.91 360.16 556.91H370.982C383.585 556.91 386.531 563.896 386.531 570.54C386.531 578.348 382.353 584.102 371.804 584.102H346.051V576.02H372.078C376.462 576.02 378.448 573.622 378.448 570.266C378.448 567.252 376.873 564.513 371.188 564.513H360.434Z" fill="white"/>
</svg>
