<svg width="480" height="480" viewBox="0 0 480 480" fill="none" xmlns="http://www.w3.org/2000/svg">
<g clip-path="url(#clip0_2_51)">
<path fill-rule="evenodd" clip-rule="evenodd" d="M240 331.982C322.843 331.982 390 263.486 390 178.991C390 94.4964 322.843 26 240 26C157.157 26 90 94.4964 90 178.991C90 263.486 157.157 331.982 240 331.982ZM266.753 233.157C250.143 233.157 238.454 222.648 238.454 197.706L238.454 127.219H256.602L256.602 197.706C256.602 208.844 261.678 213.706 269.675 213.706C278.134 213.706 281.979 208.216 281.979 197.549L281.979 128.003H298.435V198.02C298.435 208.687 302.588 214.177 311.047 214.177C319.198 214.177 324.119 209 324.119 198.177L324.119 127.062H342.267V198.177C342.267 223.275 330.117 233.471 313.969 233.471C302.126 233.471 294.129 227.981 290.13 218.255C286.132 228.138 278.134 233.157 266.753 233.157ZM221.42 204.239C221.42 221.18 211.116 233.102 186.662 233.102H134.678L134.678 214.592H186.662C197.581 214.592 202.349 209.415 202.349 201.258C202.349 192.631 196.966 188.709 186.508 188.709L135.447 188.709L135.447 171.925H186.969C197.428 171.925 202.811 167.69 202.811 159.062C202.811 150.748 197.735 145.729 187.123 145.729L134.525 145.729V127.219H187.123C211.731 127.219 221.728 139.611 221.728 156.082C221.728 168.16 216.345 176.317 206.809 180.396C216.498 184.474 221.42 192.631 221.42 204.239Z" fill="white"/>
<path d="M95.6828 459.049C95.6828 469.749 100.797 474.258 108.065 474.258C113.045 474.258 116.545 472.104 118.294 467.865C120.044 472.037 123.544 474.393 128.725 474.393C135.792 474.393 141.108 470.018 141.108 459.251L141.108 427.91L133.167 427.91L133.167 459.251C133.167 463.894 131.013 466.115 127.447 466.115C123.745 466.115 121.928 463.76 121.928 459.184L121.928 428.314L114.727 428.314L114.728 458.982C114.728 463.558 113.045 465.913 109.344 465.913C105.845 465.913 103.624 463.827 103.624 459.049L103.623 427.977L95.6825 427.977L95.6828 459.049Z" fill="white"/>
<path d="M99.4522 367.767C96.8494 367.767 95.6165 368.999 95.6165 371.534V410.233C95.6165 412.767 96.8494 414 99.4522 414H120C130.891 414 135.48 408.657 135.48 401.26C135.48 395.918 133.014 392.493 128.631 390.712C132.946 389 135.275 385.78 135.275 380.438C135.275 372.904 130.685 367.767 119.795 367.767H99.4522ZM103.562 394H120.206C124.932 394 127.329 396.055 127.329 399.959C127.329 403.726 125.069 405.986 120.206 405.986H104.452C103.904 405.986 103.562 405.781 103.562 405.233V394ZM103.562 376.534C103.562 375.986 103.904 375.712 104.452 375.712H120.069C125 375.712 127.124 378.109 127.124 381.739C127.124 385.507 124.795 387.287 120 387.287H103.562V376.534ZM163.408 367.767C152.518 367.767 147.929 372.972 147.929 380.369C147.929 385.438 150.121 389 154.436 390.781C150.189 392.561 147.792 396.123 147.792 401.397C147.792 408.589 152.244 414 163.203 414H186.628V405.918H163.203C158.477 405.918 156.217 403.726 156.217 400.096C156.217 396.329 158.614 394.479 163.271 394.479H186.217V387.15H163.477C158.819 387.15 156.422 385.438 156.422 381.671C156.422 378.109 158.545 375.849 163.408 375.849H186.559V367.767H163.408ZM198.296 367.767V375.849H211.79V414H219.941V375.849H233.434V367.767H198.296ZM243.559 367.767V375.849H257.052V414H265.203V375.849H278.696V367.767H243.559ZM304.881 367.767C293.99 367.767 289.401 372.972 289.401 380.369C289.401 385.438 291.593 389 295.908 390.781C291.661 392.561 289.264 396.123 289.264 401.397C289.264 408.589 293.716 414 304.675 414H328.1V405.918H304.675C299.949 405.918 297.689 403.726 297.689 400.096C297.689 396.329 300.086 394.479 304.744 394.479H327.689V387.15H304.949C300.291 387.15 297.894 385.438 297.894 381.671C297.894 378.109 300.017 375.849 304.881 375.849H328.032V367.767H304.881ZM343.262 367.767V375.849H368.605C373.057 375.849 375.043 378.657 375.043 381.945C375.043 385.233 373.194 388.383 368.605 388.383H350.591C345.522 388.383 343.33 390.507 343.33 395.712V414H351.413V397.287C351.413 396.466 351.824 396.123 352.577 396.123H364.632L375.18 414H384.153L373.399 395.507C380.454 393.52 383.194 387.356 383.194 381.602C383.194 374.205 378.742 367.767 368.331 367.767H343.262Z" fill="white"/>
<path d="M172.35 427.868C158.925 427.868 151.459 435.54 151.459 451.088C151.459 466.567 158.857 474.102 172.35 474.102H178.651C192.145 474.102 199.542 466.567 199.542 451.088C199.542 435.54 192.076 427.868 178.651 427.868H172.35ZM178.651 435.951C187.556 435.951 191.391 440.471 191.391 451.019C191.391 461.636 187.556 466.02 178.651 466.02H172.35C163.377 466.02 159.542 461.636 159.542 451.088C159.542 440.471 163.446 435.951 172.35 435.951H178.651ZM208.269 427.868V435.951H233.611C238.064 435.951 240.05 438.759 240.05 442.047C240.05 445.334 238.201 448.485 233.611 448.485H215.598C210.529 448.485 208.337 450.608 208.337 455.814V474.102H216.419V457.389C216.419 456.567 216.83 456.225 217.584 456.225H229.639L240.187 474.102H249.16L238.406 455.608C245.461 453.622 248.201 447.458 248.201 441.704C248.201 434.307 243.749 427.868 233.337 427.868H208.269ZM255.134 427.868V458.143C255.134 467.389 259.928 474.102 272.189 474.102H290.613V466.02H272.668C265.408 466.02 263.216 462.526 263.216 458.074V427.868H255.134ZM301.372 427.868C298.769 427.868 297.536 429.101 297.536 431.636V470.335C297.536 472.869 298.769 474.102 301.372 474.102H317.673C331.235 474.102 338.495 466.567 338.495 451.019C338.495 435.403 331.167 427.868 317.673 427.868H301.372ZM305.618 436.773C305.618 436.156 305.892 435.951 306.509 435.951H317.673C326.646 435.951 330.413 440.403 330.413 450.951C330.413 461.567 326.646 466.02 317.673 466.02H306.509C305.892 466.02 305.618 465.814 305.618 465.198V436.773ZM359.612 427.868C349.338 427.868 345.229 433.485 345.229 441.156C345.229 447.595 348.106 454.513 360.434 454.513H371.188C376.873 454.513 378.448 457.252 378.448 460.266C378.448 463.622 376.462 466.02 372.078 466.02H346.051V474.102H371.804C382.352 474.102 386.531 468.348 386.531 460.54C386.531 453.896 383.585 446.91 370.982 446.91H360.16C354.749 446.91 353.311 444.238 353.311 441.43C353.311 438.211 355.16 435.951 359.339 435.951H383.037V427.868H359.612Z" fill="white"/>
</g>
<defs>
<clipPath id="clip0_2_51">
<rect width="480" height="480" fill="white"/>
</clipPath>
</defs>
</svg>
