<svg width="480" height="480" viewBox="0 0 480 480" fill="none" xmlns="http://www.w3.org/2000/svg">
<path fill-rule="evenodd" clip-rule="evenodd" d="M480 0H0V480H480V0ZM407.001 240.264C407.001 334.538 332.071 410.962 239.64 410.962C147.209 410.962 72.2793 334.538 72.2793 240.264C72.2793 145.99 147.209 69.5664 239.64 69.5664C332.071 69.5664 407.001 145.99 407.001 240.264ZM237.915 261.145C237.915 288.973 250.957 300.699 269.489 300.699C282.187 300.699 291.111 295.099 295.572 284.073C300.034 294.924 308.957 301.049 322.17 301.049C340.187 301.049 353.743 289.673 353.743 261.67V182.325H333.495L333.495 261.67C333.495 273.747 328.004 279.522 318.909 279.522C309.471 279.522 304.838 273.397 304.838 261.495V183.375H286.477L286.477 260.97C286.477 272.872 282.187 278.997 272.75 278.997C263.827 278.997 258.164 273.572 258.164 261.145V182.5H237.915L237.915 261.145ZM180.128 300.638C207.412 300.638 218.909 287.336 218.909 268.434C218.909 255.483 213.418 246.382 202.608 241.831C213.247 237.281 219.253 228.18 219.253 214.703C219.253 196.326 208.099 182.5 180.643 182.5L121.957 182.5V203.152H180.643C192.483 203.152 198.146 208.753 198.146 218.029C198.146 227.655 192.14 232.38 180.472 232.38L122.987 232.38V251.107H179.957C191.625 251.107 197.631 255.483 197.631 265.109C197.631 274.21 192.312 279.985 180.128 279.985H122.129V300.638H180.128Z" fill="white"/>
</svg>
