<svg width="480" height="480" viewBox="0 0 480 480" fill="none" xmlns="http://www.w3.org/2000/svg">
<path fill-rule="evenodd" clip-rule="evenodd" d="M0 0H480V480H0V0ZM240.206 315.925C316.536 315.925 378.413 252.814 378.413 174.962C378.413 97.111 316.536 34 240.206 34C163.877 34 102 97.111 102 174.962C102 252.814 163.877 315.925 240.206 315.925ZM264.856 224.87C249.552 224.87 238.782 215.186 238.782 192.206L238.782 127.26H255.504L255.504 192.206C255.504 202.468 260.18 206.948 267.548 206.948C275.342 206.948 278.885 201.89 278.885 192.061L278.885 127.983H294.047V192.495C294.047 202.323 297.873 207.382 305.667 207.382C313.177 207.382 317.712 202.612 317.712 192.64L317.712 127.116H334.433V192.64C334.433 215.764 323.238 225.159 308.359 225.159C297.448 225.159 290.08 220.1 286.395 211.139C282.711 220.245 275.342 224.87 264.856 224.87ZM223.087 198.225C223.087 213.834 213.593 224.819 191.062 224.819H143.166V207.764H191.062C201.123 207.764 205.516 202.995 205.516 195.479C205.516 187.53 200.556 183.916 190.92 183.916H143.874V168.452H191.345C200.981 168.452 205.941 164.549 205.941 156.6C205.941 148.94 201.265 144.315 191.487 144.315H143.024V127.26H191.487C214.16 127.26 223.371 138.678 223.371 153.854C223.371 164.983 218.411 172.499 209.625 176.256C218.553 180.014 223.087 187.53 223.087 198.225ZM118.645 447.014C111.948 447.014 107.236 442.86 107.236 433.001L107.236 404.372H114.552L114.553 433.001C114.553 437.403 116.599 439.325 119.823 439.325C123.233 439.325 124.784 437.155 124.784 432.939L124.783 404.682H131.418L131.418 433.125C131.418 437.341 133.092 439.511 136.503 439.511C139.789 439.511 141.773 437.465 141.773 433.187L141.773 404.31H149.089L149.09 433.187C149.09 443.108 144.191 447.138 137.681 447.138C132.906 447.138 129.682 444.968 128.07 441.124C126.458 445.03 123.233 447.014 118.645 447.014ZM110.709 348.849C108.311 348.849 107.175 349.985 107.175 352.32V387.976C107.175 390.311 108.311 391.447 110.709 391.447H129.642C139.676 391.447 143.904 386.525 143.904 379.709C143.904 374.786 141.632 371.631 137.593 369.99C141.569 368.412 143.715 365.446 143.715 360.524C143.715 353.582 139.487 348.849 129.452 348.849H110.709ZM114.496 373.019H129.831C134.185 373.019 136.394 374.913 136.394 378.51C136.394 381.981 134.312 384.063 129.831 384.063H115.316C114.811 384.063 114.496 383.874 114.496 383.369V373.019ZM114.496 356.927C114.496 356.422 114.811 356.169 115.316 356.169H129.705C134.249 356.169 136.205 358.378 136.205 361.723C136.205 365.194 134.059 366.835 129.642 366.835H114.496V356.927ZM169.637 348.849C159.602 348.849 155.374 353.645 155.374 360.461C155.374 365.131 157.394 368.412 161.369 370.053C157.457 371.694 155.248 374.976 155.248 379.835C155.248 386.462 159.35 391.447 169.447 391.447H191.031V384H169.447C165.093 384 163.01 381.981 163.01 378.636C163.01 375.165 165.219 373.461 169.51 373.461H190.652V366.708H169.7C165.408 366.708 163.2 365.131 163.2 361.66C163.2 358.378 165.156 356.296 169.637 356.296H190.967V348.849H169.637ZM201.782 348.849V356.296H214.214V391.447H221.724V356.296H234.156V348.849H201.782ZM243.485 348.849V356.296H255.918V391.447H263.428V356.296H275.86V348.849H243.485ZM299.986 348.849C289.951 348.849 285.723 353.645 285.723 360.461C285.723 365.131 287.743 368.412 291.718 370.053C287.806 371.694 285.597 374.976 285.597 379.835C285.597 386.462 289.699 391.447 299.796 391.447H321.38V384H299.796C295.442 384 293.359 381.981 293.359 378.636C293.359 375.165 295.568 373.461 299.859 373.461H321.001V366.708H300.049C295.757 366.708 293.549 365.131 293.549 361.66C293.549 358.378 295.505 356.296 299.986 356.296H321.316V348.849H299.986ZM335.349 348.849V356.296H358.699C362.802 356.296 364.632 358.883 364.632 361.912C364.632 364.941 362.928 367.844 358.699 367.844H342.102C337.432 367.844 335.412 369.801 335.412 374.597V391.447H342.859V376.049C342.859 375.291 343.238 374.976 343.932 374.976H355.039L364.758 391.447H373.025L363.117 374.408C369.617 372.578 372.142 366.898 372.142 361.597C372.142 354.781 368.04 348.849 358.447 348.849H335.349ZM158.627 425.619C158.627 411.293 165.506 404.225 177.875 404.225H183.681C196.051 404.225 202.929 411.293 202.929 425.619C202.929 439.882 196.114 446.824 183.681 446.824H177.875C165.443 446.824 158.627 439.882 158.627 425.619ZM195.419 425.556C195.419 415.837 191.885 411.672 183.681 411.672H177.875C169.671 411.672 166.074 415.837 166.074 425.619C166.074 435.338 169.608 439.377 177.875 439.377H183.681C191.885 439.377 195.419 435.338 195.419 425.556ZM210.97 411.672V404.225H234.068C243.66 404.225 247.762 410.157 247.762 416.973C247.762 422.274 245.238 427.954 238.738 429.784L248.646 446.824H240.379L230.66 430.352H219.553C218.858 430.352 218.48 430.668 218.48 431.425V446.824H211.033V429.974C211.033 425.177 213.052 423.221 217.723 423.221H234.32C238.548 423.221 240.252 420.318 240.252 417.289C240.252 414.259 238.422 411.672 234.32 411.672H210.97ZM254.15 432.119V404.225H261.597V432.056C261.597 436.158 263.616 439.377 270.306 439.377H286.84V446.824H269.864C258.568 446.824 254.15 440.639 254.15 432.119ZM293.219 407.696C293.219 405.361 294.355 404.225 296.753 404.225H311.773C324.205 404.225 330.958 411.167 330.958 425.556C330.958 439.882 324.268 446.824 311.773 446.824H296.753C294.355 446.824 293.219 445.688 293.219 443.353V407.696ZM301.486 411.672C300.918 411.672 300.666 411.861 300.666 412.429V438.619C300.666 439.187 300.918 439.377 301.486 439.377H311.773C320.04 439.377 323.511 435.275 323.511 425.493C323.511 415.774 320.04 411.672 311.773 411.672H301.486ZM351.172 428.774C339.812 428.774 337.162 422.401 337.162 416.468C337.162 409.4 340.948 404.225 350.414 404.225H371.998V411.672H350.162C346.312 411.672 344.608 413.755 344.608 416.721C344.608 419.308 345.934 421.769 350.919 421.769H360.89C372.502 421.769 375.216 428.207 375.216 434.328C375.216 441.522 371.366 446.824 361.648 446.824H337.919V439.377H361.9C365.939 439.377 367.769 437.168 367.769 434.076C367.769 431.299 366.318 428.774 361.08 428.774H351.172Z" fill="white"/>
</svg>
