<svg width="480" height="480" viewBox="0 0 480 480" fill="none" xmlns="http://www.w3.org/2000/svg">
<g clip-path="url(#clip0_2_26)">
<path fill-rule="evenodd" clip-rule="evenodd" d="M240 337.982C322.843 337.982 390 269.486 390 184.991C390 100.496 322.843 32 240 32C157.157 32 90 100.496 90 184.991C90 269.486 157.157 337.982 240 337.982ZM266.753 239.157C250.143 239.157 238.454 228.648 238.454 203.706L238.454 133.219H256.602L256.602 203.706C256.602 214.844 261.678 219.706 269.675 219.706C278.134 219.706 281.979 214.216 281.979 203.549L281.979 134.003H298.435V204.02C298.435 214.687 302.588 220.177 311.047 220.177C319.198 220.177 324.119 215 324.119 204.177L324.119 133.062H342.267V204.177C342.267 229.275 330.117 239.471 313.969 239.471C302.126 239.471 294.129 233.981 290.13 224.255C286.132 234.138 278.134 239.157 266.753 239.157ZM221.42 210.239C221.42 227.18 211.116 239.102 186.662 239.102H134.678L134.678 220.592H186.662C197.581 220.592 202.349 215.415 202.349 207.258C202.349 198.631 196.966 194.709 186.508 194.709L135.447 194.709L135.447 177.925H186.969C197.428 177.925 202.811 173.69 202.811 165.062C202.811 156.748 197.735 151.729 187.123 151.729L134.525 151.729V133.219H187.123C211.731 133.219 221.728 145.611 221.728 162.082C221.728 174.16 216.345 182.317 206.809 186.396C216.498 190.474 221.42 198.631 221.42 210.239Z" fill="#2568AE"/>
<path d="M95.6828 465.049C95.6828 475.749 100.797 480.258 108.065 480.258C113.045 480.258 116.545 478.104 118.294 473.865C120.044 478.037 123.544 480.393 128.725 480.393C135.792 480.393 141.108 476.018 141.108 465.251L141.108 433.91L133.167 433.91L133.167 465.251C133.167 469.894 131.013 472.115 127.447 472.115C123.745 472.115 121.928 469.76 121.928 465.184L121.928 434.314L114.727 434.314L114.728 464.982C114.728 469.558 113.045 471.913 109.344 471.913C105.845 471.913 103.624 469.827 103.624 465.049L103.623 433.977L95.6825 433.977L95.6828 465.049Z" fill="#2568AE"/>
<path d="M99.4522 373.767C96.8494 373.767 95.6165 374.999 95.6165 377.534V416.233C95.6165 418.767 96.8494 420 99.4522 420H120C130.891 420 135.48 414.657 135.48 407.26C135.48 401.918 133.014 398.493 128.631 396.712C132.946 395 135.275 391.78 135.275 386.438C135.275 378.904 130.685 373.767 119.795 373.767H99.4522ZM103.562 400H120.206C124.932 400 127.329 402.055 127.329 405.959C127.329 409.726 125.069 411.986 120.206 411.986H104.452C103.904 411.986 103.562 411.781 103.562 411.233V400ZM103.562 382.534C103.562 381.986 103.904 381.712 104.452 381.712H120.069C125 381.712 127.124 384.109 127.124 387.739C127.124 391.507 124.795 393.287 120 393.287H103.562V382.534ZM163.408 373.767C152.518 373.767 147.929 378.972 147.929 386.369C147.929 391.438 150.121 395 154.436 396.781C150.189 398.561 147.792 402.123 147.792 407.397C147.792 414.589 152.244 420 163.203 420H186.628V411.918H163.203C158.477 411.918 156.217 409.726 156.217 406.096C156.217 402.329 158.614 400.479 163.271 400.479H186.217V393.15H163.477C158.819 393.15 156.422 391.438 156.422 387.671C156.422 384.109 158.545 381.849 163.408 381.849H186.559V373.767H163.408ZM198.296 373.767V381.849H211.79V420H219.941V381.849H233.434V373.767H198.296ZM243.559 373.767V381.849H257.052V420H265.203V381.849H278.696V373.767H243.559ZM304.881 373.767C293.99 373.767 289.401 378.972 289.401 386.369C289.401 391.438 291.593 395 295.908 396.781C291.661 398.561 289.264 402.123 289.264 407.397C289.264 414.589 293.716 420 304.675 420H328.1V411.918H304.675C299.949 411.918 297.689 409.726 297.689 406.096C297.689 402.329 300.086 400.479 304.744 400.479H327.689V393.15H304.949C300.291 393.15 297.894 391.438 297.894 387.671C297.894 384.109 300.017 381.849 304.881 381.849H328.032V373.767H304.881ZM343.262 373.767V381.849H368.605C373.057 381.849 375.043 384.657 375.043 387.945C375.043 391.233 373.194 394.383 368.605 394.383H350.591C345.522 394.383 343.33 396.507 343.33 401.712V420H351.413V403.287C351.413 402.466 351.824 402.123 352.577 402.123H364.632L375.18 420H384.153L373.399 401.507C380.454 399.52 383.194 393.356 383.194 387.602C383.194 380.205 378.742 373.767 368.331 373.767H343.262Z" fill="#2568AE"/>
<path d="M172.35 433.868C158.925 433.868 151.459 441.54 151.459 457.088C151.459 472.567 158.857 480.102 172.35 480.102H178.651C192.145 480.102 199.542 472.567 199.542 457.088C199.542 441.54 192.076 433.868 178.651 433.868H172.35ZM178.651 441.951C187.556 441.951 191.391 446.471 191.391 457.019C191.391 467.636 187.556 472.02 178.651 472.02H172.35C163.377 472.02 159.542 467.636 159.542 457.088C159.542 446.471 163.446 441.951 172.35 441.951H178.651ZM208.269 433.868V441.951H233.611C238.064 441.951 240.05 444.759 240.05 448.047C240.05 451.334 238.201 454.485 233.611 454.485H215.598C210.529 454.485 208.337 456.608 208.337 461.814V480.102H216.419V463.389C216.419 462.567 216.83 462.225 217.584 462.225H229.639L240.187 480.102H249.16L238.406 461.608C245.461 459.622 248.201 453.458 248.201 447.704C248.201 440.307 243.749 433.868 233.337 433.868H208.269ZM255.134 433.868V464.143C255.134 473.389 259.928 480.102 272.189 480.102H290.613V472.02H272.668C265.408 472.02 263.216 468.526 263.216 464.074V433.868H255.134ZM301.372 433.868C298.769 433.868 297.536 435.101 297.536 437.636V476.335C297.536 478.869 298.769 480.102 301.372 480.102H317.673C331.235 480.102 338.495 472.567 338.495 457.019C338.495 441.403 331.167 433.868 317.673 433.868H301.372ZM305.618 442.773C305.618 442.156 305.892 441.951 306.509 441.951H317.673C326.646 441.951 330.413 446.403 330.413 456.951C330.413 467.567 326.646 472.02 317.673 472.02H306.509C305.892 472.02 305.618 471.814 305.618 471.198V442.773ZM359.612 433.868C349.338 433.868 345.229 439.485 345.229 447.156C345.229 453.595 348.106 460.513 360.434 460.513H371.188C376.873 460.513 378.448 463.252 378.448 466.266C378.448 469.622 376.462 472.02 372.078 472.02H346.051V480.102H371.804C382.352 480.102 386.531 474.348 386.531 466.54C386.531 459.896 383.585 452.91 370.982 452.91H360.16C354.749 452.91 353.311 450.238 353.311 447.43C353.311 444.211 355.16 441.951 359.339 441.951H383.037V433.868H359.612Z" fill="#2568AE"/>
</g>
<defs>
<clipPath id="clip0_2_26">
<rect width="480" height="480" fill="white"/>
</clipPath>
</defs>
</svg>
