<svg width="480" height="720" viewBox="0 0 480 720" fill="none" xmlns="http://www.w3.org/2000/svg">
<path fill-rule="evenodd" clip-rule="evenodd" d="M0 30C0 13.4315 13.4315 0 30 0H450C466.569 0 480 13.4315 480 30V690C480 706.569 466.569 720 450 720H30C13.4315 720 0 706.569 0 690V30ZM240 441.982C322.843 441.982 390 373.486 390 288.991C390 204.496 322.843 136 240 136C157.157 136 90 204.496 90 288.991C90 373.486 157.157 441.982 240 441.982ZM266.753 343.157C250.143 343.157 238.454 332.648 238.454 307.706L238.454 246.293C238.454 241.281 242.517 237.219 247.528 237.219V237.219C252.54 237.219 256.602 241.281 256.602 246.293V307.706C256.602 318.844 261.678 323.706 269.675 323.706C278.134 323.706 281.979 318.216 281.979 307.549L281.979 246.231C281.979 241.687 285.663 238.003 290.207 238.003V238.003C294.751 238.003 298.435 241.687 298.435 246.231V308.02C298.435 318.687 302.588 324.177 311.047 324.177C319.198 324.177 324.119 319 324.119 308.177L324.119 246.136C324.119 241.124 328.182 237.062 333.193 237.062V237.062C338.205 237.062 342.267 241.124 342.267 246.136V308.177C342.267 333.275 330.117 343.471 313.969 343.471C313.78 343.471 313.592 343.47 313.405 343.467C302.565 343.305 277.594 343.157 266.753 343.157V343.157ZM221.42 314.239C221.42 331.18 211.116 343.102 186.662 343.102H143.933C138.822 343.102 134.678 338.958 134.678 333.847V333.847C134.678 328.735 138.822 324.592 143.933 324.592H186.662C197.581 324.592 202.349 319.415 202.349 311.258C202.349 302.631 196.966 298.709 186.508 298.709L143.84 298.709C139.205 298.709 135.447 294.952 135.447 290.317V290.317C135.447 285.682 139.205 281.925 143.84 281.925H186.969C197.428 281.925 202.811 277.69 202.811 269.062C202.811 260.748 197.735 255.729 187.123 255.729L143.78 255.729C138.668 255.729 134.525 251.585 134.525 246.474V246.474C134.525 241.362 138.668 237.219 143.78 237.219H187.123C211.731 237.219 221.728 249.611 221.728 266.082C221.728 266.272 221.726 266.461 221.724 266.649C221.565 277.83 221.42 303.057 221.42 314.239V314.239ZM108.065 584.258C100.797 584.258 95.6827 579.749 95.6827 569.049L95.6825 541.948C95.6825 539.755 97.4602 537.977 99.653 537.977V537.977C101.846 537.977 103.623 539.755 103.624 541.948L103.624 569.049C103.624 573.827 105.845 575.913 109.344 575.913C113.045 575.913 114.728 573.558 114.728 568.982L114.727 541.914C114.727 539.926 116.339 538.314 118.328 538.314V538.314C120.316 538.314 121.928 539.926 121.928 541.914L121.928 569.184C121.928 573.76 123.745 576.115 127.447 576.115C131.013 576.115 133.167 573.894 133.167 569.251L133.167 541.881C133.167 539.688 134.944 537.91 137.137 537.91V537.91C139.33 537.91 141.108 539.688 141.108 541.881L141.108 569.251C141.108 580.018 135.792 584.393 128.725 584.393C128.643 584.393 128.562 584.392 128.48 584.391C123.71 584.321 112.836 584.258 108.065 584.258V584.258ZM99.4522 477.767C96.8494 477.767 95.6165 478.999 95.6165 481.534V520.233C95.6165 522.767 96.8494 524 99.4522 524H120C130.891 524 135.48 518.657 135.48 511.26C135.48 511.149 135.479 511.038 135.477 510.929C135.384 506.176 135.275 495.192 135.275 490.438V490.438C135.275 482.904 130.685 477.767 119.795 477.767H99.4522ZM103.562 515.233C103.562 509.029 108.591 504 114.795 504H120.206C124.932 504 127.329 506.055 127.329 509.959C127.329 513.726 125.069 515.986 120.206 515.986H104.452C103.904 515.986 103.562 515.781 103.562 515.233V515.233ZM103.562 486.534C103.562 485.986 103.904 485.712 104.452 485.712H120.069C125 485.712 127.124 488.109 127.124 491.739C127.124 495.507 124.795 497.287 120 497.287H114.315C108.376 497.287 103.562 492.473 103.562 486.534V486.534ZM163.408 477.767C152.518 477.767 147.929 482.972 147.929 490.369V490.369C147.929 495.225 147.864 506.293 147.794 511.148C147.792 511.23 147.792 511.314 147.792 511.397C147.792 518.589 152.244 524 163.203 524H182.587C184.819 524 186.628 522.191 186.628 519.959V519.959C186.628 517.727 184.819 515.918 182.587 515.918H163.203C158.477 515.918 156.217 513.726 156.217 510.096C156.217 506.329 158.614 504.479 163.271 504.479H182.552C184.576 504.479 186.217 502.839 186.217 500.815V500.815C186.217 498.791 184.576 497.15 182.552 497.15H163.477C158.819 497.15 156.422 495.438 156.422 491.671C156.422 488.109 158.545 485.849 163.408 485.849H182.518C184.75 485.849 186.559 484.04 186.559 481.808V481.808C186.559 479.576 184.75 477.767 182.518 477.767H163.408ZM202.338 477.767C200.106 477.767 198.296 479.576 198.296 481.808V481.808C198.296 484.04 200.106 485.849 202.338 485.849H205.043C208.769 485.849 211.79 488.869 211.79 492.596V519.925C211.79 522.175 213.614 524 215.865 524V524C218.116 524 219.941 522.175 219.941 519.925V492.595C219.941 488.869 222.961 485.849 226.687 485.849H229.393C231.625 485.849 233.434 484.04 233.434 481.808V481.808C233.434 479.576 231.625 477.767 229.393 477.767H202.338ZM247.6 477.767C245.368 477.767 243.559 479.576 243.559 481.808V481.808C243.559 484.04 245.368 485.849 247.6 485.849H250.305C254.031 485.849 257.052 488.869 257.052 492.596V519.925C257.052 522.175 258.877 524 261.127 524V524C263.378 524 265.203 522.175 265.203 519.925V492.595C265.203 488.869 268.223 485.849 271.949 485.849H274.655C276.887 485.849 278.696 484.04 278.696 481.808V481.808C278.696 479.576 276.887 477.767 274.655 477.767H247.6ZM304.881 477.767C293.99 477.767 289.401 482.972 289.401 490.369V490.369C289.401 495.225 289.336 506.293 289.266 511.148C289.265 511.23 289.264 511.314 289.264 511.397C289.264 518.589 293.716 524 304.675 524H324.059C326.291 524 328.1 522.191 328.1 519.959V519.959C328.1 517.727 326.291 515.918 324.059 515.918H304.675C299.949 515.918 297.689 513.726 297.689 510.096C297.689 506.329 300.086 504.479 304.744 504.479H324.025C326.048 504.479 327.689 502.839 327.689 500.815V500.815C327.689 498.791 326.048 497.15 324.025 497.15H304.949C300.291 497.15 297.894 495.438 297.894 491.671C297.894 488.109 300.017 485.849 304.881 485.849H323.99C326.222 485.849 328.032 484.04 328.032 481.808V481.808C328.032 479.576 326.222 477.767 323.99 477.767H304.881ZM347.303 477.767C345.071 477.767 343.262 479.576 343.262 481.808V481.808C343.262 484.04 345.071 485.849 347.303 485.849H368.605C373.057 485.849 375.043 488.657 375.043 491.945C375.043 495.233 373.194 498.383 368.605 498.383H350.591C345.522 498.383 343.33 500.507 343.33 505.712V519.959C343.33 522.191 345.14 524 347.371 524V524C349.603 524 351.413 522.191 351.413 519.959V507.287C351.413 506.466 351.824 506.123 352.577 506.123H354.253C360.685 506.123 366.638 509.522 369.906 515.062L374.052 522.089C374.751 523.273 376.024 524 377.399 524V524C380.395 524 382.264 520.752 380.758 518.161L377.981 513.386C375.66 509.395 378.103 504.184 380.688 500.359C382.435 497.772 383.194 494.63 383.194 491.602C383.194 484.205 378.742 477.767 368.331 477.767H347.303ZM151.459 561.088C151.459 545.54 158.925 537.868 172.35 537.868H178.651C192.076 537.868 199.542 545.54 199.542 561.088C199.542 576.568 192.145 584.102 178.651 584.102H172.35C158.857 584.102 151.459 576.568 151.459 561.088ZM191.391 561.019C191.391 550.471 187.556 545.951 178.651 545.951H172.35C163.446 545.951 159.542 550.471 159.542 561.088C159.542 571.636 163.377 576.02 172.35 576.02H178.651C187.556 576.02 191.391 571.636 191.391 561.019ZM212.31 545.951C210.078 545.951 208.269 544.141 208.269 541.91V541.91C208.269 539.678 210.078 537.868 212.31 537.868H233.337C243.749 537.868 248.201 544.307 248.201 551.704C248.201 554.732 247.442 557.874 245.694 560.461C243.11 564.286 240.667 569.497 242.988 573.488L245.765 578.263C247.271 580.854 245.402 584.102 242.406 584.102V584.102C241.031 584.102 239.758 583.375 239.059 582.191L234.913 575.163C231.644 569.624 225.692 566.225 219.26 566.225H217.584C216.83 566.225 216.419 566.567 216.419 567.389V580.061C216.419 582.293 214.61 584.102 212.378 584.102V584.102C210.146 584.102 208.337 582.293 208.337 580.061V565.814C208.337 560.608 210.529 558.485 215.598 558.485H233.611C238.201 558.485 240.05 555.334 240.05 552.047C240.05 548.759 238.064 545.951 233.611 545.951H212.31ZM255.134 568.143V541.91C255.134 539.678 256.943 537.868 259.175 537.868V537.868C261.407 537.868 263.216 539.678 263.216 541.91V568.074C263.216 572.526 265.408 576.02 272.668 576.02H286.572C288.804 576.02 290.613 577.829 290.613 580.061V580.061C290.613 582.293 288.804 584.102 286.572 584.102H272.189C259.928 584.102 255.134 577.389 255.134 568.143ZM297.536 541.636C297.536 539.101 298.769 537.868 301.372 537.868H317.673C331.167 537.868 338.495 545.403 338.495 561.019C338.495 576.568 331.235 584.102 317.673 584.102H301.372C298.769 584.102 297.536 582.869 297.536 580.335V541.636ZM306.509 545.951C305.892 545.951 305.618 546.156 305.618 546.773V575.198C305.618 575.814 305.892 576.02 306.509 576.02H317.673C326.646 576.02 330.413 571.568 330.413 560.951C330.413 550.403 326.646 545.951 317.673 545.951H306.509ZM360.434 564.513C348.105 564.513 345.229 557.595 345.229 551.156C345.229 543.485 349.338 537.868 359.612 537.868H378.996C381.228 537.868 383.037 539.678 383.037 541.91V541.91C383.037 544.141 381.228 545.951 378.996 545.951H359.339C355.16 545.951 353.311 548.211 353.311 551.43C353.311 554.239 354.749 556.91 360.16 556.91H370.982C383.585 556.91 386.531 563.896 386.531 570.54C386.531 578.348 382.353 584.102 371.804 584.102H350.092C347.86 584.102 346.051 582.293 346.051 580.061V580.061C346.051 577.829 347.86 576.02 350.092 576.02H372.078C376.462 576.02 378.448 573.622 378.448 570.266C378.448 567.252 376.873 564.513 371.188 564.513H360.434Z" fill="#2568AE"/>
</svg>
