<svg width="480" height="480" viewBox="0 0 480 480" fill="none" xmlns="http://www.w3.org/2000/svg">
<path fill-rule="evenodd" clip-rule="evenodd" d="M239.64 410.962C332.071 410.962 407.001 334.538 407.001 240.264C407.001 145.99 332.071 69.5664 239.64 69.5664C147.209 69.5664 72.2793 145.99 72.2793 240.264C72.2793 334.538 147.209 410.962 239.64 410.962ZM269.489 300.7C250.957 300.7 237.915 288.974 237.915 261.146L237.915 182.5H258.164L258.164 261.146C258.164 273.572 263.827 278.997 272.75 278.997C282.187 278.997 286.477 272.872 286.477 260.971L286.477 183.375H304.838V261.496C304.838 273.397 309.471 279.522 318.909 279.522C328.004 279.522 333.495 273.747 333.495 261.671L333.495 182.325H353.743V261.671C353.743 289.674 340.187 301.05 322.17 301.05C308.957 301.05 300.034 294.924 295.572 284.073C291.111 295.099 282.187 300.7 269.489 300.7ZM218.909 268.434C218.909 287.336 207.412 300.638 180.128 300.638L122.129 300.638V279.986H180.128C192.312 279.986 197.631 274.21 197.631 265.109C197.631 255.483 191.625 251.108 179.957 251.108H122.987L122.987 232.38H180.472C192.14 232.38 198.146 227.655 198.146 218.029C198.146 208.753 192.483 203.152 180.643 203.152L121.957 203.152V182.5L180.643 182.5C208.099 182.5 219.253 196.327 219.253 214.704C219.253 228.18 213.247 237.281 202.608 241.832C213.418 246.382 218.909 255.483 218.909 268.434Z" fill="url(#paint0_linear_2_95)"/>
<defs>
<linearGradient id="paint0_linear_2_95" x1="239.64" y1="69.5664" x2="239.64" y2="410.962" gradientUnits="userSpaceOnUse">
<stop stop-color="#04DDDB"/>
<stop offset="0.5" stop-color="#0FA5D2"/>
<stop offset="1" stop-color="#1865B7"/>
</linearGradient>
</defs>
</svg>
